<svg xmlns="http://www.w3.org/2000/svg" viewBox="0 0 162 162"><g id="Layer_2" data-name="Layer 2"><g id="Layer_1-2" data-name="Layer 1"><path d="M19.2,6.5c.4,8-.9,8.9-6.3,4C10.6,8.4,8.4,7.3,7.5,7.6c-2.4,1-1.8,2.7,2.6,6.9C14.2,18.6,18,24.7,18,27.4c0,.8-1.9,2.4-4.2,3.4A23.52,23.52,0,0,0,0,52.5C0,56,2.9,71.1,4.6,76.2c.4,1.3-.2,2.1-2,2.8L0,80v82H162l-.2-41.3-.3-41.2-8-.5-8-.5,2.3-2c8.6-7.5,9.1-20.6,1-28.3-3.8-3.6-3.9-3.8-3.2-8.9.3-2.8.2-5.7-.2-6.5a7,7,0,0,1-.9-2.9c-.6-8.1-16.5-14.4-24.2-9.6-.7.4-3-.1-5.2-1.3a19.7,19.7,0,0,0-7.1-2c-2.4,0-3.5-.7-4.8-3.1-3.1-5.8-6.6-9.2-11.7-11.5C81.5-2.3,71.1.1,63,8.9c-3.9,4.3-5.1,5-9.5,5.6A23.69,23.69,0,0,0,36.9,24.6c-1.7,2.5-3.6,4.3-4.2,4.1-3.5-1.1-.3-9.6,4.9-12.8,4.5-2.8,4.6-5.4.2-4.5-7.3,1.5-7.3,1.5-6.9-3.2.1-2.5-.3-5-1.1-5.9-1.1-1.4-1.1-1.6.1-.8,1,.5,1.2.4.7-.3S27.5,0,24.4,0H18.8ZM27,16c0,6.9-.4,10.1-1.3,10.9-.8.6-1.6.9-1.8.7s-.3-5.7-.1-12.1c.3-10,.5-11.5,1.8-10.4C26.6,5.9,27,8.7,27,16ZM90,6.5c3.3,1.7,9,8,9,10,0,.8-1.8,2.4-4,3.5-5.2,2.7-8.9,8.3-9.7,14.8-.5,4.8-.4,5.2,1.6,5.2,1.6,0,2.1-.6,2.1-2.4,0-6.1,4-11.7,10.5-14.7,5.4-2.5,8.2-2.4,14.2.7,5,2.4,5.3,2.5,8.4.8,7.3-3.7,16.6.5,19.1,8.8.9,3,.8,4.5-.6,8.1-2.1,5.7-2.1,6,1.4,7.5a18.23,18.23,0,0,1,5.7,4.9c6.7,8.7,0,21.3-11.4,21.3-2.7,0-4.2.6-5.1,2-1.2,1.9-4.2,2.7-5.5,1.4-.3-.4,2.5-5.2,6.3-10.6s6.7-10.5,6.4-11.1c-.8-2-10.5-7.9-12-7.3a13.34,13.34,0,0,0-3.6,4c-4.1,6.3-4.7,4.5-2.3-6.4,2.4-11.1,2.3-11.6-3.7-12.8s-6.8-.9-6.8,2.2-2,4.7-6.8,5.3l-3.9.5-.6,9.1c-.3,4.9-1.1,9.5-1.6,10-.8.8-1.1.6-1.1-.7,0-3.1-5.9-10.5-10.8-13.3C81.3,45,79.3,44.5,74,44.5c-7.9.1-13.4,2.7-18.1,8.5-1.8,2.2-3.6,4-4.1,4s-.6-.5-.3-1,.2-1-.2-1-.7-1.7-.5-3.8a18.36,18.36,0,0,0-1.2-7.6c-1.5-3.6-1.5-4,.6-6.8,2.3-3.4,7.2-5.8,11.6-5.8,2.3,0,3.5-.9,5.7-3.9,4.1-6,.7-9-3.7-3.1-1.3,1.8-3.1,3-4.4,3-3.4,0-7.5,2-11.1,5.4l-3.3,3-2.7-2c-3.8-2.8-3.8-3.7-.3-7.7,4.3-4.9,10.2-7.6,15.6-7.2,4.2.3,4.6.1,6.8-3.3C70.8,5.1,80.8,1.7,90,6.5ZM36.4,35.4A20.34,20.34,0,0,1,46.8,51c.6,7-.5,8-8.9,8-6.2,0-6.9.2-6.9,2s.7,2,6,2c3.3,0,6,.3,6,.6a84,84,0,0,1-3.6,8L35.9,79H10L9,76.4C8.4,75,7,68.9,5.8,62.9c-3-14.3-2.9-14.4,8.8-14.5,8-.2,8.9-.4,8.9-2s-.9-1.9-8-2.1c-4.4-.1-8.1-.5-8.2-1-.7-1.9,3.8-6.2,9-8.8C23,31.1,29.6,31.4,36.4,35.4Zm80,11.4c-2.9,14.2-4.5,17.9-5.7,13.3-.6-2.4,2.2-19.2,3.5-20.9a1.46,1.46,0,0,1,2.3-.2C117.5,39.8,117.5,41.4,116.4,46.8Zm-9.9,15.7c0,13.6-.2,16-1.5,16s-1.5-2.6-1.8-16.3c-.2-15.2-.1-16.3,1.5-16S106.5,48,106.5,62.5ZM79.8,49.6c6.3,2.6,13.1,10.6,11.9,13.8-.3.7-2,1.6-3.8,2a12.9,12.9,0,0,0-5.6,2.8L80,70.4l-3.2-3.8c-3.4-4.2-9.7-7.5-14-7.6-1.5,0-3-.5-3.3-1.1-.9-1.4,3.1-5.6,7.5-8S75,47.5,79.8,49.6ZM130.1,56a3.79,3.79,0,0,1,1.9,2.4c0,1.4-11.7,18.6-13.4,19.8-1.9,1.3-3.6.9-3.6-.9,0-1.6,11.9-22.3,12.8-22.3A19.08,19.08,0,0,1,130.1,56ZM66.8,64.4c6.3,3.3,12.8,12.8,9.6,14-2.1.8-33.9.8-34.7,0C39.8,76.5,48.1,66.1,53,64.1,56.7,62.7,63.7,62.8,66.8,64.4ZM96,71.6c2,1.8,3,3.4,2.8,4.8-.3,1.9-.9,2.1-7.8,2.1-6.5,0-7.5-.2-7.8-1.8-.5-2.5,4.6-7.7,7.4-7.7C91.8,69,94.3,70.2,96,71.6Zm60.9,12.8c.8.9,1.1,4.8.9,11.2l-.3,9.9-15.2.3c-9.1.1-15.3.6-15.3,1.2a7.93,7.93,0,0,1-.2,1.7c-.2.5,6.7,1,15.2,1.3l15.5.5.3,10.2c.1,5.7.1,10.4,0,10.5s-23.7.5-52.3.8c-45.3.4-52,.7-52,2s6.5,1.5,51.7,1.8l51.8.2.5,2.3a65.22,65.22,0,0,1,.3,11.2l-.3,9-76.2.3L5,159l-.5-2.2a67.62,67.62,0,0,1-.3-11.3l.3-9,15.3-.3C34.1,136,35,135.8,35,134s-.9-2-15.2-2.2l-15.3-.3v-21l51.8-.3c50.8-.2,51.7-.3,51.7-2.2s-.9-2-51.7-2.2l-51.8-.3-.3-9a67.09,67.09,0,0,1,.3-11.3L5,83H80.4C143.7,83,155.9,83.2,156.9,84.4Z"/><path d="M75.4,18.5a3.29,3.29,0,0,0,0,2.4c.9,1.3,3.6.2,3.6-1.4C79,17.6,76,16.8,75.4,18.5Z"/><path d="M20.5,60c-.8,1.4.3,3,2.1,3,.8,0,1.4-.9,1.4-2A1.85,1.85,0,0,0,20.5,60Z"/><path d="M17.3,93.6c-.8,2,.8,3.6,2.6,2.5,1.5-1,.8-4.1-.9-4.1C18.4,92,17.7,92.7,17.3,93.6Z"/><path d="M141.3,92.7a2.18,2.18,0,0,0-.1,3.9c.7.5.8.3.3-.7-.7-1.2-.6-1.2.7-.1s1.8,1,2.3.2C145.4,94.5,142.9,92.1,141.3,92.7Z"/><path d="M115.2,107.7a1.8,1.8,0,0,0,3.6,0c.2-1.2-.3-1.7-1.8-1.7S115,106.5,115.2,107.7Z"/><path d="M17.5,120c-.8,1.4.3,3,2.1,3,.8,0,1.4-.9,1.4-2A1.85,1.85,0,0,0,17.5,120Z"/><path d="M140.5,120a1.82,1.82,0,0,0,.3,2.2c1.4,1.4,4.5.2,4-1.5S141.4,118.6,140.5,120Z"/><path d="M42.5,133a1.82,1.82,0,0,0,.3,2.2c1.4,1.4,4.5.2,4-1.5S43.4,131.6,42.5,133Z"/><path d="M17.7,145.6c-1.4,1.5-.6,3.4,1.4,3.4,1.4,0,1.9-.5,1.7-1.7C20.5,145.5,18.8,144.6,17.7,145.6Z"/><path d="M140.7,145.7c-1.4,1.3-.7,3.3,1.1,3.3,2.6,0,3.4-1.1,2.1-2.7C142.6,144.9,141.7,144.7,140.7,145.7Z"/></g></g></svg>