<svg xmlns="http://www.w3.org/2000/svg" viewBox="0 0 196.53 108.7"><g id="Layer_2" data-name="Layer 2"><g id="Layer_1-2" data-name="Layer 1"><path d="M47.09,2.4c-10.7,3.7-16.4,6.8-23.5,12.7C9.79,26.5,2.19,44.3,7.09,53.7c.8,1.6,4.1,5.3,7.5,8.3s6,5.8,6,6.1-1.6,1.4-3.5,2.3-3.2,2-2.9,2.5-.1.6-.9.3-3.5,1.7-6.5,4.6c-8.9,8.7-9,15.2-.6,24.4,10.3,11.2,26.7,7.8,44.7-9.3,3.1-3,6-5.1,6.3-4.8s.7,2.6.8,5.1c.1,3.2.9,5.3,2.5,7,2.6,2.7,8.4,5.1,10.1,4.1.5-.3,3.8-5.3,7.2-11s6.7-10.5,7.1-10.5.6,2.1.3,4.7c-.8,6.9,1,11.3,5.9,14,6.3,3.6,8.6,3.1,14-3a43.25,43.25,0,0,0,6.3-8.5c2.6-5.3,3.6-4.4,3.2,3-.2,5,1.2,7.2,6.4,9.7,6.1,3,8.5,2.1,15.6-5.7,3.3-3.6,6.2-6.3,6.5-6s.1,2.4-.4,4.7c-.9,4.1-.8,4.3,2.2,6.1,1.7,1.1,3.5,1.6,3.8,1.2a75.23,75.23,0,0,0,3.9-8.7c3.5-8.8,6.6-13.2,17-24.1,8.5-8.9,11.2-9.9,7.5-2.8-2.2,4.3-2,11.1.4,12.4,3.7,1.9,4.8,1.1,7.1-5a96.74,96.74,0,0,1,7.1-13.9c6.9-11.1,6.5-14.1-1.7-14.1-2.9,0-4.5,1-10.2,6.7A191,191,0,0,0,167.29,68c-9.4,12.5-10.2,12.1-4.1-2.2,2.4-5.8,4.4-11.4,4.4-12.6,0-2.8-2-4.4-6.2-5l-3.4-.6L153.39,61c-2.5,7.3-5.1,15-5.7,17-.8,2.4-3.6,6-8.1,10.2-15.9,14.9-19.4,12.2-12.5-9.4,2-6,5.7-16.2,8.4-22.7l4.9-11.8,7.3-1.1c5.6-.9,7.7-1.7,9.2-3.5l1.9-2.4-6.3-.3c-3.5-.2-6.8-.7-7.2-1.1s.1-2.7,1.2-5c3.2-6.1,3.3-10,.5-12.8a8.84,8.84,0,0,0-4.9-2.3c-2.7,0-2.6-.2-7.4,12.5l-2.7,7-5.9,1c-4.8.8-6.2,1.5-7.2,3.5-1.2,2.5-1.2,2.5,3.5,2.8,2.6.2,5,.7,5.5,1.1s-2,8.8-5.2,18.6l-6,17.9-7.3,7.3c-8.9,9-13.6,12.2-14.9,10.2-2.5-3.9.7-14.3,10.1-32.9,4.2-8.4,4.9-12,2.6-13.9-1.6-1.4-7.8-3.3-7.3-2.3.2.4-.4,1.4-1.4,2.4-1.6,1.5-2,1.5-5.6-1.2a23.38,23.38,0,0,0-6.5-3.5c-3.8-1-10.6,2.4-15.1,7.4S60.79,70.5,60,76c-.8,4.5-3.4,7.3-12.4,13.3-10.5,7-21.1,10.9-29.5,11-7.6,0-12.5-2.2-12.5-5.5s9.1-11.7,16-15c5.8-2.7,7.1-3,12.7-2.4s6.2.4,7.2-1.5c1.3-2.4-.4-7.6-3.2-10-1.8-1.4-9.5-.8-13.2,1.1-1.1.6-1.7.7-1.3.3s-.1-1.5-1.3-2.3a28.33,28.33,0,0,1-5-5.5,18.08,18.08,0,0,1-1.9-16.2c4.5-11.9,26.5-28.7,41-31.3,7.1-1.3,8-.8,8,4.2,0,8.6-10.5,21.7-22.2,27.6L36.09,47l5.5-.7c7-.8,16.6-5.2,21.8-10,4.9-4.3,10.2-14.4,10.2-19.2,0-4.1-5.3-9.6-13.7-14.1l-5.8-3ZM95,55.9c2.5,2.3-16.7,32.9-25.8,41.1-2.4,2.2-2.3,2.2-3.6-.2-1.4-2.6,1.1-13.2,5-21.6C78.29,59.2,89.39,50.4,95,55.9Z"/></g></g></svg>